<mxfile host="app.diagrams.net" agent="Mozilla/5.0 (Windows NT 10.0; Win64; x64) AppleWebKit/537.36 (KHTML, like Gecko) Chrome/128.0.0.0 Safari/537.36" version="24.7.10">
  <diagram name="Page-1" id="G4pYxyU2FkNYo4f7sW-s">
    <mxGraphModel dx="8547" dy="3916" grid="1" gridSize="10" guides="1" tooltips="1" connect="1" arrows="1" fold="1" page="1" pageScale="1" pageWidth="827" pageHeight="1169" math="0" shadow="0">
      <root>
        <mxCell id="0" />
        <mxCell id="1" parent="0" />
        <mxCell id="yJoKxNVRloe3FFeGkEBf-2" value="S1 (HQ)" style="shape=mxgraph.cisco.routers.router;sketch=0;html=1;pointerEvents=1;dashed=0;fillColor=#036897;strokeColor=#ffffff;strokeWidth=2;verticalLabelPosition=bottom;verticalAlign=top;align=center;outlineConnect=0;" parent="1" vertex="1">
          <mxGeometry x="480" y="295.5" width="78" height="53" as="geometry" />
        </mxCell>
        <mxCell id="yJoKxNVRloe3FFeGkEBf-3" value="Site 2" style="shape=mxgraph.cisco.routers.router;sketch=0;html=1;pointerEvents=1;dashed=0;fillColor=#036897;strokeColor=#ffffff;strokeWidth=2;verticalLabelPosition=bottom;verticalAlign=top;align=center;outlineConnect=0;" parent="1" vertex="1">
          <mxGeometry x="810" y="460" width="78" height="53" as="geometry" />
        </mxCell>
        <mxCell id="yJoKxNVRloe3FFeGkEBf-4" value="IBM server" style="shape=mxgraph.cisco.servers.fileserver;sketch=0;html=1;pointerEvents=1;dashed=0;fillColor=#036897;strokeColor=#ffffff;strokeWidth=2;verticalLabelPosition=bottom;verticalAlign=top;align=center;outlineConnect=0;" parent="1" vertex="1">
          <mxGeometry x="437" y="142" width="43" height="62" as="geometry" />
        </mxCell>
        <mxCell id="yJoKxNVRloe3FFeGkEBf-5" value="S1 _D1" style="shape=mxgraph.cisco.switches.layer_3_switch;sketch=0;html=1;pointerEvents=1;dashed=0;fillColor=#036897;strokeColor=#ffffff;strokeWidth=2;verticalLabelPosition=bottom;verticalAlign=top;align=center;outlineConnect=0;" parent="1" vertex="1">
          <mxGeometry x="290" y="221" width="64" height="64" as="geometry" />
        </mxCell>
        <mxCell id="yJoKxNVRloe3FFeGkEBf-6" value="" style="endArrow=none;html=1;rounded=0;exitX=0;exitY=0.5;exitDx=0;exitDy=0;exitPerimeter=0;" parent="1" source="yJoKxNVRloe3FFeGkEBf-4" target="yJoKxNVRloe3FFeGkEBf-5" edge="1">
          <mxGeometry width="50" height="50" relative="1" as="geometry">
            <mxPoint x="230" y="250" as="sourcePoint" />
            <mxPoint x="280" y="200" as="targetPoint" />
          </mxGeometry>
        </mxCell>
        <mxCell id="yJoKxNVRloe3FFeGkEBf-7" value="" style="endArrow=none;html=1;rounded=0;entryX=1;entryY=0.5;entryDx=0;entryDy=0;entryPerimeter=0;exitX=0;exitY=0.5;exitDx=0;exitDy=0;exitPerimeter=0;" parent="1" source="yJoKxNVRloe3FFeGkEBf-2" target="yJoKxNVRloe3FFeGkEBf-5" edge="1">
          <mxGeometry width="50" height="50" relative="1" as="geometry">
            <mxPoint x="322" y="420" as="sourcePoint" />
            <mxPoint x="300" y="332" as="targetPoint" />
          </mxGeometry>
        </mxCell>
        <mxCell id="yJoKxNVRloe3FFeGkEBf-8" value="Site 3&lt;div&gt;&lt;br&gt;&lt;/div&gt;" style="shape=mxgraph.cisco.routers.router;sketch=0;html=1;pointerEvents=1;dashed=0;fillColor=#036897;strokeColor=#ffffff;strokeWidth=2;verticalLabelPosition=bottom;verticalAlign=top;align=center;outlineConnect=0;" parent="1" vertex="1">
          <mxGeometry x="810" y="140" width="78" height="53" as="geometry" />
        </mxCell>
        <mxCell id="yJoKxNVRloe3FFeGkEBf-9" value="" style="endArrow=none;dashed=1;html=1;dashPattern=1 3;strokeWidth=2;rounded=0;entryX=0;entryY=0.5;entryDx=0;entryDy=0;entryPerimeter=0;exitX=1;exitY=0.5;exitDx=0;exitDy=0;exitPerimeter=0;" parent="1" source="yJoKxNVRloe3FFeGkEBf-2" target="yJoKxNVRloe3FFeGkEBf-3" edge="1">
          <mxGeometry width="50" height="50" relative="1" as="geometry">
            <mxPoint x="620" y="370" as="sourcePoint" />
            <mxPoint x="670" y="320" as="targetPoint" />
          </mxGeometry>
        </mxCell>
        <mxCell id="yJoKxNVRloe3FFeGkEBf-10" value="" style="endArrow=none;dashed=1;html=1;dashPattern=1 3;strokeWidth=2;rounded=0;entryX=0.5;entryY=1;entryDx=0;entryDy=0;entryPerimeter=0;exitX=0.5;exitY=0;exitDx=0;exitDy=0;exitPerimeter=0;" parent="1" source="yJoKxNVRloe3FFeGkEBf-3" target="yJoKxNVRloe3FFeGkEBf-8" edge="1">
          <mxGeometry width="50" height="50" relative="1" as="geometry">
            <mxPoint x="900" y="321.5" as="sourcePoint" />
            <mxPoint x="1152" y="321.5" as="targetPoint" />
          </mxGeometry>
        </mxCell>
        <mxCell id="yJoKxNVRloe3FFeGkEBf-11" value="" style="endArrow=none;dashed=1;html=1;dashPattern=1 3;strokeWidth=2;rounded=0;entryX=0;entryY=0.5;entryDx=0;entryDy=0;entryPerimeter=0;" parent="1" source="yJoKxNVRloe3FFeGkEBf-2" target="yJoKxNVRloe3FFeGkEBf-8" edge="1">
          <mxGeometry width="50" height="50" relative="1" as="geometry">
            <mxPoint x="568" y="332" as="sourcePoint" />
            <mxPoint x="820" y="497" as="targetPoint" />
          </mxGeometry>
        </mxCell>
        <mxCell id="yJoKxNVRloe3FFeGkEBf-12" value="" style="endArrow=none;html=1;rounded=0;entryX=0;entryY=0.5;entryDx=0;entryDy=0;entryPerimeter=0;exitX=0.5;exitY=0;exitDx=0;exitDy=0;exitPerimeter=0;" parent="1" source="yJoKxNVRloe3FFeGkEBf-8" target="yJoKxNVRloe3FFeGkEBf-265" edge="1">
          <mxGeometry width="50" height="50" relative="1" as="geometry">
            <mxPoint x="1330" y="161" as="sourcePoint" />
            <mxPoint x="1060.0000000000005" y="-102" as="targetPoint" />
          </mxGeometry>
        </mxCell>
        <mxCell id="yJoKxNVRloe3FFeGkEBf-13" value="" style="endArrow=none;html=1;rounded=0;entryX=0;entryY=0.5;entryDx=0;entryDy=0;entryPerimeter=0;exitX=0.5;exitY=1;exitDx=0;exitDy=0;exitPerimeter=0;" parent="1" source="yJoKxNVRloe3FFeGkEBf-3" target="yJoKxNVRloe3FFeGkEBf-15" edge="1">
          <mxGeometry width="50" height="50" relative="1" as="geometry">
            <mxPoint x="1367" y="562" as="sourcePoint" />
            <mxPoint x="1060" y="486.5" as="targetPoint" />
          </mxGeometry>
        </mxCell>
        <mxCell id="yJoKxNVRloe3FFeGkEBf-15" value="S2_D1" style="shape=mxgraph.cisco.switches.layer_3_switch;sketch=0;html=1;pointerEvents=1;dashed=0;fillColor=#036897;strokeColor=#ffffff;strokeWidth=2;verticalLabelPosition=bottom;verticalAlign=top;align=center;outlineConnect=0;" parent="1" vertex="1">
          <mxGeometry x="1053" y="783.5" width="64" height="64" as="geometry" />
        </mxCell>
        <mxCell id="yJoKxNVRloe3FFeGkEBf-16" value="S2_A5" style="shape=mxgraph.cisco.switches.workgroup_switch;sketch=0;html=1;pointerEvents=1;dashed=0;fillColor=#036897;strokeColor=#ffffff;strokeWidth=2;verticalLabelPosition=bottom;verticalAlign=top;align=center;outlineConnect=0;" parent="1" vertex="1">
          <mxGeometry x="1433" y="1026.5" width="101" height="50" as="geometry" />
        </mxCell>
        <mxCell id="yJoKxNVRloe3FFeGkEBf-17" value="S2_A7" style="shape=mxgraph.cisco.switches.workgroup_switch;sketch=0;html=1;pointerEvents=1;dashed=0;fillColor=#036897;strokeColor=#ffffff;strokeWidth=2;verticalLabelPosition=bottom;verticalAlign=top;align=center;outlineConnect=0;" parent="1" vertex="1">
          <mxGeometry x="1433" y="1262.5" width="101" height="50" as="geometry" />
        </mxCell>
        <mxCell id="yJoKxNVRloe3FFeGkEBf-18" value="S2_A4" style="shape=mxgraph.cisco.switches.workgroup_switch;sketch=0;html=1;pointerEvents=1;dashed=0;fillColor=#036897;strokeColor=#ffffff;strokeWidth=2;verticalLabelPosition=bottom;verticalAlign=top;align=center;outlineConnect=0;" parent="1" vertex="1">
          <mxGeometry x="1433" y="906.5" width="101" height="50" as="geometry" />
        </mxCell>
        <mxCell id="yJoKxNVRloe3FFeGkEBf-19" value="S2_A3" style="shape=mxgraph.cisco.switches.workgroup_switch;sketch=0;html=1;pointerEvents=1;dashed=0;fillColor=#036897;strokeColor=#ffffff;strokeWidth=2;verticalLabelPosition=bottom;verticalAlign=top;align=center;outlineConnect=0;" parent="1" vertex="1">
          <mxGeometry x="1433" y="786.5" width="101" height="50" as="geometry" />
        </mxCell>
        <mxCell id="yJoKxNVRloe3FFeGkEBf-20" value="S2_A2" style="shape=mxgraph.cisco.switches.workgroup_switch;sketch=0;html=1;pointerEvents=1;dashed=0;fillColor=#036897;strokeColor=#ffffff;strokeWidth=2;verticalLabelPosition=bottom;verticalAlign=top;align=center;outlineConnect=0;" parent="1" vertex="1">
          <mxGeometry x="1433" y="666.5" width="101" height="50" as="geometry" />
        </mxCell>
        <mxCell id="yJoKxNVRloe3FFeGkEBf-21" value="S2_A1" style="shape=mxgraph.cisco.switches.workgroup_switch;sketch=0;html=1;pointerEvents=1;dashed=0;fillColor=#036897;strokeColor=#ffffff;strokeWidth=2;verticalLabelPosition=bottom;verticalAlign=top;align=center;outlineConnect=0;" parent="1" vertex="1">
          <mxGeometry x="1433" y="546.5" width="101" height="50" as="geometry" />
        </mxCell>
        <mxCell id="yJoKxNVRloe3FFeGkEBf-24" value="" style="endArrow=none;html=1;rounded=0;entryX=1;entryY=0.5;entryDx=0;entryDy=0;exitX=0;exitY=0.5;exitDx=0;exitDy=0;exitPerimeter=0;edgeStyle=orthogonalEdgeStyle;" parent="1" source="yJoKxNVRloe3FFeGkEBf-21" edge="1">
          <mxGeometry width="50" height="50" relative="1" as="geometry">
            <mxPoint x="1289" y="854" as="sourcePoint" />
            <mxPoint x="1333" y="871.5" as="targetPoint" />
          </mxGeometry>
        </mxCell>
        <mxCell id="yJoKxNVRloe3FFeGkEBf-25" value="" style="endArrow=none;html=1;rounded=0;entryX=1;entryY=0.5;entryDx=0;entryDy=0;exitX=0;exitY=0.5;exitDx=0;exitDy=0;exitPerimeter=0;edgeStyle=orthogonalEdgeStyle;" parent="1" source="yJoKxNVRloe3FFeGkEBf-20" edge="1">
          <mxGeometry width="50" height="50" relative="1" as="geometry">
            <mxPoint x="1443" y="581.5" as="sourcePoint" />
            <mxPoint x="1333" y="871.5" as="targetPoint" />
          </mxGeometry>
        </mxCell>
        <mxCell id="yJoKxNVRloe3FFeGkEBf-26" value="" style="endArrow=none;html=1;rounded=0;exitX=0;exitY=0.5;exitDx=0;exitDy=0;exitPerimeter=0;entryX=1;entryY=0.5;entryDx=0;entryDy=0;edgeStyle=orthogonalEdgeStyle;" parent="1" source="yJoKxNVRloe3FFeGkEBf-19" edge="1">
          <mxGeometry width="50" height="50" relative="1" as="geometry">
            <mxPoint x="1423" y="811.5" as="sourcePoint" />
            <mxPoint x="1333" y="871.5" as="targetPoint" />
          </mxGeometry>
        </mxCell>
        <mxCell id="yJoKxNVRloe3FFeGkEBf-27" value="" style="endArrow=none;html=1;rounded=0;exitX=0;exitY=0.5;exitDx=0;exitDy=0;exitPerimeter=0;entryX=1;entryY=0.5;entryDx=0;entryDy=0;edgeStyle=orthogonalEdgeStyle;" parent="1" source="yJoKxNVRloe3FFeGkEBf-18" edge="1">
          <mxGeometry width="50" height="50" relative="1" as="geometry">
            <mxPoint x="1443" y="821.5" as="sourcePoint" />
            <mxPoint x="1333" y="871.5" as="targetPoint" />
          </mxGeometry>
        </mxCell>
        <mxCell id="yJoKxNVRloe3FFeGkEBf-28" value="" style="endArrow=none;html=1;rounded=0;exitX=0;exitY=0.5;exitDx=0;exitDy=0;exitPerimeter=0;entryX=1;entryY=0.5;entryDx=0;entryDy=0;edgeStyle=orthogonalEdgeStyle;" parent="1" source="yJoKxNVRloe3FFeGkEBf-16" edge="1">
          <mxGeometry width="50" height="50" relative="1" as="geometry">
            <mxPoint x="1443" y="941.5" as="sourcePoint" />
            <mxPoint x="1333" y="871.5" as="targetPoint" />
          </mxGeometry>
        </mxCell>
        <mxCell id="yJoKxNVRloe3FFeGkEBf-29" value="" style="endArrow=none;html=1;rounded=0;exitX=0;exitY=0.5;exitDx=0;exitDy=0;exitPerimeter=0;entryX=1;entryY=0.5;entryDx=0;entryDy=0;edgeStyle=orthogonalEdgeStyle;" parent="1" source="yJoKxNVRloe3FFeGkEBf-17" edge="1">
          <mxGeometry width="50" height="50" relative="1" as="geometry">
            <mxPoint x="1443" y="1061.5" as="sourcePoint" />
            <mxPoint x="1333" y="871.5" as="targetPoint" />
          </mxGeometry>
        </mxCell>
        <mxCell id="yJoKxNVRloe3FFeGkEBf-35" value="10 PC" style="shape=mxgraph.cisco.computers_and_peripherals.pc;sketch=0;html=1;pointerEvents=1;dashed=0;fillColor=#036897;strokeColor=#ffffff;strokeWidth=2;verticalLabelPosition=bottom;verticalAlign=top;align=center;outlineConnect=0;" parent="1" vertex="1">
          <mxGeometry x="1893" y="536.5" width="78" height="70" as="geometry" />
        </mxCell>
        <mxCell id="yJoKxNVRloe3FFeGkEBf-41" value="10 PC" style="shape=mxgraph.cisco.computers_and_peripherals.pc;sketch=0;html=1;pointerEvents=1;dashed=0;fillColor=#036897;strokeColor=#ffffff;strokeWidth=2;verticalLabelPosition=bottom;verticalAlign=top;align=center;outlineConnect=0;" parent="1" vertex="1">
          <mxGeometry x="1893" y="656.5" width="78" height="70" as="geometry" />
        </mxCell>
        <mxCell id="yJoKxNVRloe3FFeGkEBf-49" value="10 PC" style="shape=mxgraph.cisco.computers_and_peripherals.pc;sketch=0;html=1;pointerEvents=1;dashed=0;fillColor=#036897;strokeColor=#ffffff;strokeWidth=2;verticalLabelPosition=bottom;verticalAlign=top;align=center;outlineConnect=0;" parent="1" vertex="1">
          <mxGeometry x="1893" y="775.5" width="78" height="70" as="geometry" />
        </mxCell>
        <mxCell id="yJoKxNVRloe3FFeGkEBf-57" value="10 PC" style="shape=mxgraph.cisco.computers_and_peripherals.pc;sketch=0;html=1;pointerEvents=1;dashed=0;fillColor=#036897;strokeColor=#ffffff;strokeWidth=2;verticalLabelPosition=bottom;verticalAlign=top;align=center;outlineConnect=0;" parent="1" vertex="1">
          <mxGeometry x="1893" y="896.5" width="78" height="70" as="geometry" />
        </mxCell>
        <mxCell id="yJoKxNVRloe3FFeGkEBf-73" value="2 x Smart TV" style="shape=mxgraph.cisco.misc.tv;sketch=0;html=1;pointerEvents=1;dashed=0;fillColor=#036897;strokeColor=#ffffff;strokeWidth=2;verticalLabelPosition=bottom;verticalAlign=top;align=center;outlineConnect=0;" parent="1" vertex="1">
          <mxGeometry x="2027" y="1342.5" width="80" height="79" as="geometry" />
        </mxCell>
        <mxCell id="yJoKxNVRloe3FFeGkEBf-76" value="2 X Camera&lt;div&gt;&lt;br&gt;&lt;/div&gt;" style="shape=mxgraph.cisco.computers_and_peripherals.video_camera;sketch=0;html=1;pointerEvents=1;dashed=0;fillColor=#036897;strokeColor=#ffffff;strokeWidth=2;verticalLabelPosition=bottom;verticalAlign=top;align=center;outlineConnect=0;" parent="1" vertex="1">
          <mxGeometry x="1933.5" y="1248.5" width="49" height="78" as="geometry" />
        </mxCell>
        <mxCell id="yJoKxNVRloe3FFeGkEBf-86" value="2 x Smart TV" style="shape=mxgraph.cisco.misc.tv;sketch=0;html=1;pointerEvents=1;dashed=0;fillColor=#036897;strokeColor=#ffffff;strokeWidth=2;verticalLabelPosition=bottom;verticalAlign=top;align=center;outlineConnect=0;flipH=0;" parent="1" vertex="1">
          <mxGeometry x="-835" y="669" width="80" height="79" as="geometry" />
        </mxCell>
        <mxCell id="yJoKxNVRloe3FFeGkEBf-89" value="2 x Camera" style="shape=mxgraph.cisco.computers_and_peripherals.video_camera;sketch=0;html=1;pointerEvents=1;dashed=0;fillColor=#036897;strokeColor=#ffffff;strokeWidth=2;verticalLabelPosition=bottom;verticalAlign=top;align=center;outlineConnect=0;flipH=1;flipV=0;" parent="1" vertex="1">
          <mxGeometry x="-704" y="575" width="49" height="78" as="geometry" />
        </mxCell>
        <mxCell id="yJoKxNVRloe3FFeGkEBf-108" value="S1_A6" style="shape=mxgraph.cisco.switches.workgroup_switch;sketch=0;html=1;pointerEvents=1;dashed=0;fillColor=#036897;strokeColor=#ffffff;strokeWidth=2;verticalLabelPosition=bottom;verticalAlign=top;align=center;outlineConnect=0;flipH=1;flipV=0;" parent="1" vertex="1">
          <mxGeometry x="-190" y="479" width="101" height="50" as="geometry" />
        </mxCell>
        <mxCell id="yJoKxNVRloe3FFeGkEBf-109" value="S1_A7" style="shape=mxgraph.cisco.switches.workgroup_switch;sketch=0;html=1;pointerEvents=1;dashed=0;fillColor=#036897;strokeColor=#ffffff;strokeWidth=2;verticalLabelPosition=bottom;verticalAlign=top;align=center;outlineConnect=0;flipH=1;flipV=0;" parent="1" vertex="1">
          <mxGeometry x="-190" y="639" width="101" height="50" as="geometry" />
        </mxCell>
        <mxCell id="yJoKxNVRloe3FFeGkEBf-110" value="S1_A5" style="shape=mxgraph.cisco.switches.workgroup_switch;sketch=0;html=1;pointerEvents=1;dashed=0;fillColor=#036897;strokeColor=#ffffff;strokeWidth=2;verticalLabelPosition=bottom;verticalAlign=top;align=center;outlineConnect=0;flipH=1;flipV=0;" parent="1" vertex="1">
          <mxGeometry x="-190" y="359" width="101" height="50" as="geometry" />
        </mxCell>
        <mxCell id="yJoKxNVRloe3FFeGkEBf-111" value="S1_A4" style="shape=mxgraph.cisco.switches.workgroup_switch;sketch=0;html=1;pointerEvents=1;dashed=0;fillColor=#036897;strokeColor=#ffffff;strokeWidth=2;verticalLabelPosition=bottom;verticalAlign=top;align=center;outlineConnect=0;flipH=1;flipV=0;" parent="1" vertex="1">
          <mxGeometry x="-190" y="239" width="101" height="50" as="geometry" />
        </mxCell>
        <mxCell id="yJoKxNVRloe3FFeGkEBf-112" value="S1_A3" style="shape=mxgraph.cisco.switches.workgroup_switch;sketch=0;html=1;pointerEvents=1;dashed=0;fillColor=#036897;strokeColor=#ffffff;strokeWidth=2;verticalLabelPosition=bottom;verticalAlign=top;align=center;outlineConnect=0;flipH=1;flipV=0;" parent="1" vertex="1">
          <mxGeometry x="-190" y="119" width="101" height="50" as="geometry" />
        </mxCell>
        <mxCell id="yJoKxNVRloe3FFeGkEBf-113" value="S1_A2" style="shape=mxgraph.cisco.switches.workgroup_switch;sketch=0;html=1;pointerEvents=1;dashed=0;fillColor=#036897;strokeColor=#ffffff;strokeWidth=2;verticalLabelPosition=bottom;verticalAlign=top;align=center;outlineConnect=0;flipH=1;flipV=0;" parent="1" vertex="1">
          <mxGeometry x="-190" y="-1" width="101" height="50" as="geometry" />
        </mxCell>
        <mxCell id="yJoKxNVRloe3FFeGkEBf-114" value="S1_A1" style="shape=mxgraph.cisco.switches.workgroup_switch;sketch=0;html=1;pointerEvents=1;dashed=0;fillColor=#036897;strokeColor=#ffffff;strokeWidth=2;verticalLabelPosition=bottom;verticalAlign=top;align=center;outlineConnect=0;flipH=1;flipV=0;" parent="1" vertex="1">
          <mxGeometry x="-190" y="-120" width="101" height="50" as="geometry" />
        </mxCell>
        <mxCell id="yJoKxNVRloe3FFeGkEBf-115" value="S1_A8" style="shape=mxgraph.cisco.switches.workgroup_switch;sketch=0;html=1;pointerEvents=1;dashed=0;fillColor=#036897;strokeColor=#ffffff;strokeWidth=2;verticalLabelPosition=bottom;verticalAlign=top;align=center;outlineConnect=0;flipH=1;flipV=0;" parent="1" vertex="1">
          <mxGeometry x="-190" y="860" width="101" height="50" as="geometry" />
        </mxCell>
        <mxCell id="yJoKxNVRloe3FFeGkEBf-116" value="" style="endArrow=none;html=1;rounded=0;entryX=0;entryY=0.5;entryDx=0;entryDy=0;exitX=0;exitY=0.5;exitDx=0;exitDy=0;exitPerimeter=0;edgeStyle=orthogonalEdgeStyle;" parent="1" source="yJoKxNVRloe3FFeGkEBf-114" edge="1">
          <mxGeometry width="50" height="50" relative="1" as="geometry">
            <mxPoint x="-80" y="-66" as="sourcePoint" />
            <mxPoint x="70" y="322" as="targetPoint" />
          </mxGeometry>
        </mxCell>
        <mxCell id="yJoKxNVRloe3FFeGkEBf-117" value="" style="endArrow=none;html=1;rounded=0;entryX=0;entryY=0.5;entryDx=0;entryDy=0;exitX=0;exitY=0.5;exitDx=0;exitDy=0;exitPerimeter=0;edgeStyle=orthogonalEdgeStyle;" parent="1" source="yJoKxNVRloe3FFeGkEBf-113" edge="1">
          <mxGeometry width="50" height="50" relative="1" as="geometry">
            <mxPoint x="-79" y="-85" as="sourcePoint" />
            <mxPoint x="70" y="322" as="targetPoint" />
          </mxGeometry>
        </mxCell>
        <mxCell id="yJoKxNVRloe3FFeGkEBf-118" value="" style="endArrow=none;html=1;rounded=0;entryX=0;entryY=0.5;entryDx=0;entryDy=0;exitX=0;exitY=0.5;exitDx=0;exitDy=0;exitPerimeter=0;edgeStyle=orthogonalEdgeStyle;" parent="1" source="yJoKxNVRloe3FFeGkEBf-112" edge="1">
          <mxGeometry width="50" height="50" relative="1" as="geometry">
            <mxPoint x="-79" y="34" as="sourcePoint" />
            <mxPoint x="70" y="322" as="targetPoint" />
          </mxGeometry>
        </mxCell>
        <mxCell id="yJoKxNVRloe3FFeGkEBf-119" value="" style="endArrow=none;html=1;rounded=0;entryX=0;entryY=0.5;entryDx=0;entryDy=0;exitX=0;exitY=0.5;exitDx=0;exitDy=0;exitPerimeter=0;edgeStyle=orthogonalEdgeStyle;" parent="1" source="yJoKxNVRloe3FFeGkEBf-111" edge="1">
          <mxGeometry width="50" height="50" relative="1" as="geometry">
            <mxPoint x="-79" y="154" as="sourcePoint" />
            <mxPoint x="70" y="322" as="targetPoint" />
          </mxGeometry>
        </mxCell>
        <mxCell id="yJoKxNVRloe3FFeGkEBf-120" value="" style="endArrow=none;html=1;rounded=0;entryX=0;entryY=0.5;entryDx=0;entryDy=0;exitX=0;exitY=0.5;exitDx=0;exitDy=0;exitPerimeter=0;edgeStyle=orthogonalEdgeStyle;" parent="1" source="yJoKxNVRloe3FFeGkEBf-110" edge="1">
          <mxGeometry width="50" height="50" relative="1" as="geometry">
            <mxPoint x="-79" y="274" as="sourcePoint" />
            <mxPoint x="70" y="322" as="targetPoint" />
          </mxGeometry>
        </mxCell>
        <mxCell id="yJoKxNVRloe3FFeGkEBf-121" value="" style="endArrow=none;html=1;rounded=0;entryX=0;entryY=0.5;entryDx=0;entryDy=0;exitX=0;exitY=0.5;exitDx=0;exitDy=0;exitPerimeter=0;edgeStyle=orthogonalEdgeStyle;" parent="1" source="yJoKxNVRloe3FFeGkEBf-108" edge="1">
          <mxGeometry width="50" height="50" relative="1" as="geometry">
            <mxPoint x="-79" y="394" as="sourcePoint" />
            <mxPoint x="70" y="322" as="targetPoint" />
          </mxGeometry>
        </mxCell>
        <mxCell id="yJoKxNVRloe3FFeGkEBf-122" value="" style="endArrow=none;html=1;rounded=0;entryX=0;entryY=0.5;entryDx=0;entryDy=0;exitX=0;exitY=0.5;exitDx=0;exitDy=0;exitPerimeter=0;edgeStyle=orthogonalEdgeStyle;" parent="1" source="yJoKxNVRloe3FFeGkEBf-109" edge="1">
          <mxGeometry width="50" height="50" relative="1" as="geometry">
            <mxPoint x="-79" y="514" as="sourcePoint" />
            <mxPoint x="70" y="322" as="targetPoint" />
          </mxGeometry>
        </mxCell>
        <mxCell id="yJoKxNVRloe3FFeGkEBf-123" value="" style="endArrow=none;html=1;rounded=0;entryX=0;entryY=0.5;entryDx=0;entryDy=0;exitX=0;exitY=0.5;exitDx=0;exitDy=0;exitPerimeter=0;edgeStyle=orthogonalEdgeStyle;" parent="1" source="yJoKxNVRloe3FFeGkEBf-115" edge="1">
          <mxGeometry width="50" height="50" relative="1" as="geometry">
            <mxPoint x="-79" y="630" as="sourcePoint" />
            <mxPoint x="70" y="322" as="targetPoint" />
          </mxGeometry>
        </mxCell>
        <mxCell id="yJoKxNVRloe3FFeGkEBf-130" value="10 PC" style="shape=mxgraph.cisco.computers_and_peripherals.pc;sketch=0;html=1;pointerEvents=1;dashed=0;fillColor=#036897;strokeColor=#ffffff;strokeWidth=2;verticalLabelPosition=bottom;verticalAlign=top;align=center;outlineConnect=0;flipH=1;flipV=0;" parent="1" vertex="1">
          <mxGeometry x="-680" y="-131.5" width="78" height="70" as="geometry" />
        </mxCell>
        <mxCell id="yJoKxNVRloe3FFeGkEBf-136" value="10 PC" style="shape=mxgraph.cisco.computers_and_peripherals.pc;sketch=0;html=1;pointerEvents=1;dashed=0;fillColor=#036897;strokeColor=#ffffff;strokeWidth=2;verticalLabelPosition=bottom;verticalAlign=top;align=center;outlineConnect=0;flipH=1;flipV=0;" parent="1" vertex="1">
          <mxGeometry x="-680" y="-11" width="78" height="70" as="geometry" />
        </mxCell>
        <mxCell id="yJoKxNVRloe3FFeGkEBf-144" value="10 PC" style="shape=mxgraph.cisco.computers_and_peripherals.pc;sketch=0;html=1;pointerEvents=1;dashed=0;fillColor=#036897;strokeColor=#ffffff;strokeWidth=2;verticalLabelPosition=bottom;verticalAlign=top;align=center;outlineConnect=0;flipH=1;flipV=0;" parent="1" vertex="1">
          <mxGeometry x="-680" y="109" width="78" height="70" as="geometry" />
        </mxCell>
        <mxCell id="yJoKxNVRloe3FFeGkEBf-152" value="10 PC" style="shape=mxgraph.cisco.computers_and_peripherals.pc;sketch=0;html=1;pointerEvents=1;dashed=0;fillColor=#036897;strokeColor=#ffffff;strokeWidth=2;verticalLabelPosition=bottom;verticalAlign=top;align=center;outlineConnect=0;flipH=1;flipV=0;" parent="1" vertex="1">
          <mxGeometry x="-680" y="229" width="78" height="70" as="geometry" />
        </mxCell>
        <mxCell id="yJoKxNVRloe3FFeGkEBf-160" value="10 PC" style="shape=mxgraph.cisco.computers_and_peripherals.pc;sketch=0;html=1;pointerEvents=1;dashed=0;fillColor=#036897;strokeColor=#ffffff;strokeWidth=2;verticalLabelPosition=bottom;verticalAlign=top;align=center;outlineConnect=0;flipH=1;flipV=0;" parent="1" vertex="1">
          <mxGeometry x="-680" y="349" width="78" height="70" as="geometry" />
        </mxCell>
        <mxCell id="yJoKxNVRloe3FFeGkEBf-165" value="" style="endArrow=none;dashed=1;html=1;dashPattern=1 3;strokeWidth=2;rounded=0;entryX=1;entryY=0.5;entryDx=0;entryDy=0;exitX=0.98;exitY=0.5;exitDx=0;exitDy=0;exitPerimeter=0;" parent="1" source="yJoKxNVRloe3FFeGkEBf-108" edge="1">
          <mxGeometry width="50" height="50" relative="1" as="geometry">
            <mxPoint x="-188" y="504" as="sourcePoint" />
            <mxPoint x="-203" y="504" as="targetPoint" />
          </mxGeometry>
        </mxCell>
        <mxCell id="yJoKxNVRloe3FFeGkEBf-173" value="5 x Printer" style="shape=mxgraph.cisco.computers_and_peripherals.printer;sketch=0;html=1;pointerEvents=1;dashed=0;fillColor=#036897;strokeColor=#ffffff;strokeWidth=2;verticalLabelPosition=bottom;verticalAlign=top;align=center;outlineConnect=0;flipH=1;flipV=0;" parent="1" vertex="1">
          <mxGeometry x="-740" y="939.5" width="91" height="34" as="geometry" />
        </mxCell>
        <mxCell id="yJoKxNVRloe3FFeGkEBf-177" value="&lt;div&gt;10 Docking Station to 1 Access Switch&lt;/div&gt;-&amp;gt; 10 Access Switch&lt;div&gt;-&amp;gt; 2 Layer 3 Switch&lt;/div&gt;&lt;div&gt;1 Server connected to Layer 3 Switch&lt;/div&gt;&lt;div&gt;-&amp;gt; Router&lt;/div&gt;" style="text;html=1;align=center;verticalAlign=middle;resizable=0;points=[];autosize=1;strokeColor=none;fillColor=none;" parent="1" vertex="1">
          <mxGeometry x="-755" y="-282" width="230" height="90" as="geometry" />
        </mxCell>
        <mxCell id="yJoKxNVRloe3FFeGkEBf-178" value="S1 _D2" style="shape=mxgraph.cisco.switches.layer_3_switch;sketch=0;html=1;pointerEvents=1;dashed=0;fillColor=#036897;strokeColor=#ffffff;strokeWidth=2;verticalLabelPosition=bottom;verticalAlign=top;align=center;outlineConnect=0;" parent="1" vertex="1">
          <mxGeometry x="289" y="345" width="64" height="64" as="geometry" />
        </mxCell>
        <mxCell id="yJoKxNVRloe3FFeGkEBf-195" value="" style="endArrow=none;html=1;rounded=0;" parent="1" edge="1">
          <mxGeometry width="50" height="50" relative="1" as="geometry">
            <mxPoint x="316.2580645161288" y="345" as="sourcePoint" />
            <mxPoint x="316.7419354838712" y="285" as="targetPoint" />
          </mxGeometry>
        </mxCell>
        <mxCell id="yJoKxNVRloe3FFeGkEBf-196" value="" style="endArrow=none;html=1;rounded=0;" parent="1" edge="1">
          <mxGeometry width="50" height="50" relative="1" as="geometry">
            <mxPoint x="325.2580645161288" y="346" as="sourcePoint" />
            <mxPoint x="325.7419354838712" y="286" as="targetPoint" />
          </mxGeometry>
        </mxCell>
        <mxCell id="yJoKxNVRloe3FFeGkEBf-197" value="" style="ellipse;whiteSpace=wrap;html=1;fillColor=none;" parent="1" vertex="1">
          <mxGeometry x="308" y="312.5" width="30" height="17" as="geometry" />
        </mxCell>
        <mxCell id="yJoKxNVRloe3FFeGkEBf-198" value="" style="endArrow=none;html=1;rounded=0;entryX=1;entryY=0.5;entryDx=0;entryDy=0;entryPerimeter=0;exitX=0;exitY=0.5;exitDx=0;exitDy=0;exitPerimeter=0;" parent="1" source="yJoKxNVRloe3FFeGkEBf-2" target="yJoKxNVRloe3FFeGkEBf-178" edge="1">
          <mxGeometry width="50" height="50" relative="1" as="geometry">
            <mxPoint x="490" y="332" as="sourcePoint" />
            <mxPoint x="364" y="263" as="targetPoint" />
          </mxGeometry>
        </mxCell>
        <mxCell id="yJoKxNVRloe3FFeGkEBf-199" value="" style="endArrow=none;html=1;rounded=0;entryX=1;entryY=0;entryDx=0;entryDy=0;entryPerimeter=0;exitX=0.5;exitY=1;exitDx=0;exitDy=0;exitPerimeter=0;" parent="1" source="yJoKxNVRloe3FFeGkEBf-4" target="yJoKxNVRloe3FFeGkEBf-178" edge="1">
          <mxGeometry width="50" height="50" relative="1" as="geometry">
            <mxPoint x="480" y="71" as="sourcePoint" />
            <mxPoint x="332" y="231" as="targetPoint" />
          </mxGeometry>
        </mxCell>
        <mxCell id="yJoKxNVRloe3FFeGkEBf-201" value="4 x WAP&amp;nbsp;" style="shape=mxgraph.cisco.wireless.wlan_controller;sketch=0;html=1;pointerEvents=1;dashed=0;fillColor=#036897;strokeColor=#ffffff;strokeWidth=2;verticalLabelPosition=bottom;verticalAlign=top;align=center;outlineConnect=0;flipH=1;flipV=0;" parent="1" vertex="1">
          <mxGeometry x="-730" y="467" width="101" height="56" as="geometry" />
        </mxCell>
        <mxCell id="yJoKxNVRloe3FFeGkEBf-202" value="20 x Security Camera" style="shape=mxgraph.cisco.computers_and_peripherals.video_camera;sketch=0;html=1;pointerEvents=1;dashed=0;fillColor=#036897;strokeColor=#ffffff;strokeWidth=2;verticalLabelPosition=bottom;verticalAlign=top;align=center;outlineConnect=0;flipH=1;flipV=0;" parent="1" vertex="1">
          <mxGeometry x="-704" y="793.5" width="49" height="78" as="geometry" />
        </mxCell>
        <mxCell id="yJoKxNVRloe3FFeGkEBf-203" value="S1 _D2" style="shape=mxgraph.cisco.switches.layer_3_switch;sketch=0;html=1;pointerEvents=1;dashed=0;fillColor=#036897;strokeColor=#ffffff;strokeWidth=2;verticalLabelPosition=bottom;verticalAlign=top;align=center;outlineConnect=0;" parent="1" vertex="1">
          <mxGeometry x="1053" y="907.1800000000001" width="64" height="64" as="geometry" />
        </mxCell>
        <mxCell id="yJoKxNVRloe3FFeGkEBf-212" value="" style="endArrow=none;html=1;rounded=0;" parent="1" edge="1">
          <mxGeometry width="50" height="50" relative="1" as="geometry">
            <mxPoint x="1080.2580645161288" y="907.1800000000001" as="sourcePoint" />
            <mxPoint x="1080.7419354838712" y="847.1800000000001" as="targetPoint" />
          </mxGeometry>
        </mxCell>
        <mxCell id="yJoKxNVRloe3FFeGkEBf-213" value="" style="endArrow=none;html=1;rounded=0;" parent="1" edge="1">
          <mxGeometry width="50" height="50" relative="1" as="geometry">
            <mxPoint x="1089.2580645161288" y="908.1800000000001" as="sourcePoint" />
            <mxPoint x="1089.7419354838712" y="848.1800000000001" as="targetPoint" />
          </mxGeometry>
        </mxCell>
        <mxCell id="yJoKxNVRloe3FFeGkEBf-214" value="" style="ellipse;whiteSpace=wrap;html=1;fillColor=none;" parent="1" vertex="1">
          <mxGeometry x="1072" y="874.6800000000001" width="30" height="17" as="geometry" />
        </mxCell>
        <mxCell id="yJoKxNVRloe3FFeGkEBf-223" value="" style="endArrow=none;html=1;rounded=0;entryX=0;entryY=0.5;entryDx=0;entryDy=0;entryPerimeter=0;exitX=0.5;exitY=1;exitDx=0;exitDy=0;exitPerimeter=0;" parent="1" source="yJoKxNVRloe3FFeGkEBf-3" target="yJoKxNVRloe3FFeGkEBf-203" edge="1">
          <mxGeometry width="50" height="50" relative="1" as="geometry">
            <mxPoint x="859" y="523" as="sourcePoint" />
            <mxPoint x="1070" y="744" as="targetPoint" />
          </mxGeometry>
        </mxCell>
        <mxCell id="yJoKxNVRloe3FFeGkEBf-241" value="10 PC" style="shape=mxgraph.cisco.computers_and_peripherals.pc;sketch=0;html=1;pointerEvents=1;dashed=0;fillColor=#036897;strokeColor=#ffffff;strokeWidth=2;verticalLabelPosition=bottom;verticalAlign=top;align=center;outlineConnect=0;" parent="1" vertex="1">
          <mxGeometry x="1893" y="1007.5" width="78" height="70" as="geometry" />
        </mxCell>
        <mxCell id="yJoKxNVRloe3FFeGkEBf-242" value="S2_A8" style="shape=mxgraph.cisco.switches.workgroup_switch;sketch=0;html=1;pointerEvents=1;dashed=0;fillColor=#036897;strokeColor=#ffffff;strokeWidth=2;verticalLabelPosition=bottom;verticalAlign=top;align=center;outlineConnect=0;" parent="1" vertex="1">
          <mxGeometry x="1433" y="1485.5" width="101" height="50" as="geometry" />
        </mxCell>
        <mxCell id="yJoKxNVRloe3FFeGkEBf-248" value="5 x Printer" style="shape=mxgraph.cisco.computers_and_peripherals.printer;sketch=0;html=1;pointerEvents=1;dashed=0;fillColor=#036897;strokeColor=#ffffff;strokeWidth=2;verticalLabelPosition=bottom;verticalAlign=top;align=center;outlineConnect=0;" parent="1" vertex="1">
          <mxGeometry x="1904" y="1610.5" width="91" height="34" as="geometry" />
        </mxCell>
        <mxCell id="yJoKxNVRloe3FFeGkEBf-251" value="S2_A6" style="shape=mxgraph.cisco.switches.workgroup_switch;sketch=0;html=1;pointerEvents=1;dashed=0;fillColor=#036897;strokeColor=#ffffff;strokeWidth=2;verticalLabelPosition=bottom;verticalAlign=top;align=center;outlineConnect=0;" parent="1" vertex="1">
          <mxGeometry x="1433" y="1146.5" width="101" height="50" as="geometry" />
        </mxCell>
        <mxCell id="yJoKxNVRloe3FFeGkEBf-258" value="4 x WAP&amp;nbsp;" style="shape=mxgraph.cisco.wireless.wlan_controller;sketch=0;html=1;pointerEvents=1;dashed=0;fillColor=#036897;strokeColor=#ffffff;strokeWidth=2;verticalLabelPosition=bottom;verticalAlign=top;align=center;outlineConnect=0;" parent="1" vertex="1">
          <mxGeometry x="1887.5" y="1131.5" width="101" height="56" as="geometry" />
        </mxCell>
        <mxCell id="yJoKxNVRloe3FFeGkEBf-259" value="" style="endArrow=none;dashed=1;html=1;dashPattern=1 3;strokeWidth=2;rounded=0;entryX=0;entryY=0.5;entryDx=0;entryDy=0;exitX=0.98;exitY=0.5;exitDx=0;exitDy=0;exitPerimeter=0;" parent="1" source="yJoKxNVRloe3FFeGkEBf-251" edge="1">
          <mxGeometry width="50" height="50" relative="1" as="geometry">
            <mxPoint x="1532" y="1171.5" as="sourcePoint" />
            <mxPoint x="1533" y="1171.5" as="targetPoint" />
          </mxGeometry>
        </mxCell>
        <mxCell id="yJoKxNVRloe3FFeGkEBf-261" value="20 X Security Camera&lt;div&gt;&lt;br&gt;&lt;/div&gt;" style="shape=mxgraph.cisco.computers_and_peripherals.video_camera;sketch=0;html=1;pointerEvents=1;dashed=0;fillColor=#036897;strokeColor=#ffffff;strokeWidth=2;verticalLabelPosition=bottom;verticalAlign=top;align=center;outlineConnect=0;" parent="1" vertex="1">
          <mxGeometry x="1898" y="1464.5" width="49" height="78" as="geometry" />
        </mxCell>
        <mxCell id="yJoKxNVRloe3FFeGkEBf-262" value="" style="endArrow=none;html=1;rounded=0;entryX=0;entryY=0.5;entryDx=0;entryDy=0;entryPerimeter=0;exitX=1;exitY=0.5;exitDx=0;exitDy=0;edgeStyle=orthogonalEdgeStyle;" parent="1" target="yJoKxNVRloe3FFeGkEBf-242" edge="1">
          <mxGeometry width="50" height="50" relative="1" as="geometry">
            <mxPoint x="1333" y="871.5" as="sourcePoint" />
            <mxPoint x="1373" y="1441.5" as="targetPoint" />
          </mxGeometry>
        </mxCell>
        <mxCell id="yJoKxNVRloe3FFeGkEBf-264" value="" style="endArrow=none;html=1;rounded=0;entryX=0;entryY=0.5;entryDx=0;entryDy=0;entryPerimeter=0;exitX=1;exitY=0.5;exitDx=0;exitDy=0;edgeStyle=orthogonalEdgeStyle;" parent="1" target="yJoKxNVRloe3FFeGkEBf-251" edge="1">
          <mxGeometry width="50" height="50" relative="1" as="geometry">
            <mxPoint x="1333" y="871.5" as="sourcePoint" />
            <mxPoint x="1063" y="949.5" as="targetPoint" />
          </mxGeometry>
        </mxCell>
        <mxCell id="yJoKxNVRloe3FFeGkEBf-265" value="S3_D1" style="shape=mxgraph.cisco.switches.layer_3_switch;sketch=0;html=1;pointerEvents=1;dashed=0;fillColor=#036897;strokeColor=#ffffff;strokeWidth=2;verticalLabelPosition=bottom;verticalAlign=top;align=center;outlineConnect=0;" parent="1" vertex="1">
          <mxGeometry x="1053" y="-357.5" width="64" height="64" as="geometry" />
        </mxCell>
        <mxCell id="yJoKxNVRloe3FFeGkEBf-266" value="S3_A5" style="shape=mxgraph.cisco.switches.workgroup_switch;sketch=0;html=1;pointerEvents=1;dashed=0;fillColor=#036897;strokeColor=#ffffff;strokeWidth=2;verticalLabelPosition=bottom;verticalAlign=top;align=center;outlineConnect=0;" parent="1" vertex="1">
          <mxGeometry x="1433" y="-163.5" width="101" height="50" as="geometry" />
        </mxCell>
        <mxCell id="yJoKxNVRloe3FFeGkEBf-267" value="S3_A7" style="shape=mxgraph.cisco.switches.workgroup_switch;sketch=0;html=1;pointerEvents=1;dashed=0;fillColor=#036897;strokeColor=#ffffff;strokeWidth=2;verticalLabelPosition=bottom;verticalAlign=top;align=center;outlineConnect=0;" parent="1" vertex="1">
          <mxGeometry x="1433" y="72.5" width="101" height="50" as="geometry" />
        </mxCell>
        <mxCell id="yJoKxNVRloe3FFeGkEBf-268" value="S3_A4" style="shape=mxgraph.cisco.switches.workgroup_switch;sketch=0;html=1;pointerEvents=1;dashed=0;fillColor=#036897;strokeColor=#ffffff;strokeWidth=2;verticalLabelPosition=bottom;verticalAlign=top;align=center;outlineConnect=0;" parent="1" vertex="1">
          <mxGeometry x="1433" y="-283.5" width="101" height="50" as="geometry" />
        </mxCell>
        <mxCell id="yJoKxNVRloe3FFeGkEBf-269" value="S3_A3" style="shape=mxgraph.cisco.switches.workgroup_switch;sketch=0;html=1;pointerEvents=1;dashed=0;fillColor=#036897;strokeColor=#ffffff;strokeWidth=2;verticalLabelPosition=bottom;verticalAlign=top;align=center;outlineConnect=0;" parent="1" vertex="1">
          <mxGeometry x="1433" y="-403.5" width="101" height="50" as="geometry" />
        </mxCell>
        <mxCell id="yJoKxNVRloe3FFeGkEBf-270" value="S3_A2" style="shape=mxgraph.cisco.switches.workgroup_switch;sketch=0;html=1;pointerEvents=1;dashed=0;fillColor=#036897;strokeColor=#ffffff;strokeWidth=2;verticalLabelPosition=bottom;verticalAlign=top;align=center;outlineConnect=0;" parent="1" vertex="1">
          <mxGeometry x="1433" y="-523.5" width="101" height="50" as="geometry" />
        </mxCell>
        <mxCell id="yJoKxNVRloe3FFeGkEBf-271" value="S3_A1" style="shape=mxgraph.cisco.switches.workgroup_switch;sketch=0;html=1;pointerEvents=1;dashed=0;fillColor=#036897;strokeColor=#ffffff;strokeWidth=2;verticalLabelPosition=bottom;verticalAlign=top;align=center;outlineConnect=0;" parent="1" vertex="1">
          <mxGeometry x="1433" y="-643.5" width="101" height="50" as="geometry" />
        </mxCell>
        <mxCell id="yJoKxNVRloe3FFeGkEBf-274" value="" style="endArrow=none;html=1;rounded=0;entryX=1;entryY=0.5;entryDx=0;entryDy=0;exitX=0;exitY=0.5;exitDx=0;exitDy=0;exitPerimeter=0;edgeStyle=orthogonalEdgeStyle;" parent="1" source="yJoKxNVRloe3FFeGkEBf-271" edge="1">
          <mxGeometry width="50" height="50" relative="1" as="geometry">
            <mxPoint x="1289" y="-336" as="sourcePoint" />
            <mxPoint x="1333" y="-318.5" as="targetPoint" />
          </mxGeometry>
        </mxCell>
        <mxCell id="yJoKxNVRloe3FFeGkEBf-275" value="" style="endArrow=none;html=1;rounded=0;entryX=1;entryY=0.5;entryDx=0;entryDy=0;exitX=0;exitY=0.5;exitDx=0;exitDy=0;exitPerimeter=0;edgeStyle=orthogonalEdgeStyle;" parent="1" source="yJoKxNVRloe3FFeGkEBf-270" edge="1">
          <mxGeometry width="50" height="50" relative="1" as="geometry">
            <mxPoint x="1443" y="-608.5" as="sourcePoint" />
            <mxPoint x="1333" y="-318.5" as="targetPoint" />
          </mxGeometry>
        </mxCell>
        <mxCell id="yJoKxNVRloe3FFeGkEBf-276" value="" style="endArrow=none;html=1;rounded=0;exitX=0;exitY=0.5;exitDx=0;exitDy=0;exitPerimeter=0;entryX=1;entryY=0.5;entryDx=0;entryDy=0;edgeStyle=orthogonalEdgeStyle;" parent="1" source="yJoKxNVRloe3FFeGkEBf-269" edge="1">
          <mxGeometry width="50" height="50" relative="1" as="geometry">
            <mxPoint x="1423" y="-378.5" as="sourcePoint" />
            <mxPoint x="1333" y="-318.5" as="targetPoint" />
          </mxGeometry>
        </mxCell>
        <mxCell id="yJoKxNVRloe3FFeGkEBf-277" value="" style="endArrow=none;html=1;rounded=0;exitX=0;exitY=0.5;exitDx=0;exitDy=0;exitPerimeter=0;entryX=1;entryY=0.5;entryDx=0;entryDy=0;edgeStyle=orthogonalEdgeStyle;" parent="1" source="yJoKxNVRloe3FFeGkEBf-268" edge="1">
          <mxGeometry width="50" height="50" relative="1" as="geometry">
            <mxPoint x="1443" y="-368.5" as="sourcePoint" />
            <mxPoint x="1333" y="-318.5" as="targetPoint" />
          </mxGeometry>
        </mxCell>
        <mxCell id="yJoKxNVRloe3FFeGkEBf-278" value="" style="endArrow=none;html=1;rounded=0;exitX=0;exitY=0.5;exitDx=0;exitDy=0;exitPerimeter=0;entryX=1;entryY=0.5;entryDx=0;entryDy=0;edgeStyle=orthogonalEdgeStyle;" parent="1" source="yJoKxNVRloe3FFeGkEBf-266" edge="1">
          <mxGeometry width="50" height="50" relative="1" as="geometry">
            <mxPoint x="1443" y="-248.5" as="sourcePoint" />
            <mxPoint x="1333" y="-318.5" as="targetPoint" />
          </mxGeometry>
        </mxCell>
        <mxCell id="yJoKxNVRloe3FFeGkEBf-279" value="" style="endArrow=none;html=1;rounded=0;exitX=0;exitY=0.5;exitDx=0;exitDy=0;exitPerimeter=0;entryX=1;entryY=0.5;entryDx=0;entryDy=0;edgeStyle=orthogonalEdgeStyle;" parent="1" source="yJoKxNVRloe3FFeGkEBf-267" edge="1">
          <mxGeometry width="50" height="50" relative="1" as="geometry">
            <mxPoint x="1443" y="-128.5" as="sourcePoint" />
            <mxPoint x="1333" y="-318.5" as="targetPoint" />
          </mxGeometry>
        </mxCell>
        <mxCell id="yJoKxNVRloe3FFeGkEBf-285" value="10 PC" style="shape=mxgraph.cisco.computers_and_peripherals.pc;sketch=0;html=1;pointerEvents=1;dashed=0;fillColor=#036897;strokeColor=#ffffff;strokeWidth=2;verticalLabelPosition=bottom;verticalAlign=top;align=center;outlineConnect=0;" parent="1" vertex="1">
          <mxGeometry x="1893" y="-653.5" width="78" height="70" as="geometry" />
        </mxCell>
        <mxCell id="yJoKxNVRloe3FFeGkEBf-291" value="10 PC" style="shape=mxgraph.cisco.computers_and_peripherals.pc;sketch=0;html=1;pointerEvents=1;dashed=0;fillColor=#036897;strokeColor=#ffffff;strokeWidth=2;verticalLabelPosition=bottom;verticalAlign=top;align=center;outlineConnect=0;" parent="1" vertex="1">
          <mxGeometry x="1893" y="-533.5" width="78" height="70" as="geometry" />
        </mxCell>
        <mxCell id="yJoKxNVRloe3FFeGkEBf-299" value="10 PC" style="shape=mxgraph.cisco.computers_and_peripherals.pc;sketch=0;html=1;pointerEvents=1;dashed=0;fillColor=#036897;strokeColor=#ffffff;strokeWidth=2;verticalLabelPosition=bottom;verticalAlign=top;align=center;outlineConnect=0;" parent="1" vertex="1">
          <mxGeometry x="1893" y="-414.5" width="78" height="70" as="geometry" />
        </mxCell>
        <mxCell id="yJoKxNVRloe3FFeGkEBf-307" value="10 PC" style="shape=mxgraph.cisco.computers_and_peripherals.pc;sketch=0;html=1;pointerEvents=1;dashed=0;fillColor=#036897;strokeColor=#ffffff;strokeWidth=2;verticalLabelPosition=bottom;verticalAlign=top;align=center;outlineConnect=0;" parent="1" vertex="1">
          <mxGeometry x="1893" y="-293.5" width="78" height="70" as="geometry" />
        </mxCell>
        <mxCell id="yJoKxNVRloe3FFeGkEBf-323" value="2 x Smart TV" style="shape=mxgraph.cisco.misc.tv;sketch=0;html=1;pointerEvents=1;dashed=0;fillColor=#036897;strokeColor=#ffffff;strokeWidth=2;verticalLabelPosition=bottom;verticalAlign=top;align=center;outlineConnect=0;" parent="1" vertex="1">
          <mxGeometry x="2027" y="152.5" width="80" height="79" as="geometry" />
        </mxCell>
        <mxCell id="yJoKxNVRloe3FFeGkEBf-326" value="2 X Camera&lt;div&gt;&lt;br&gt;&lt;/div&gt;" style="shape=mxgraph.cisco.computers_and_peripherals.video_camera;sketch=0;html=1;pointerEvents=1;dashed=0;fillColor=#036897;strokeColor=#ffffff;strokeWidth=2;verticalLabelPosition=bottom;verticalAlign=top;align=center;outlineConnect=0;" parent="1" vertex="1">
          <mxGeometry x="1933.5" y="58.5" width="49" height="78" as="geometry" />
        </mxCell>
        <mxCell id="yJoKxNVRloe3FFeGkEBf-344" value="10 PC" style="shape=mxgraph.cisco.computers_and_peripherals.pc;sketch=0;html=1;pointerEvents=1;dashed=0;fillColor=#036897;strokeColor=#ffffff;strokeWidth=2;verticalLabelPosition=bottom;verticalAlign=top;align=center;outlineConnect=0;" parent="1" vertex="1">
          <mxGeometry x="1893" y="-182.5" width="78" height="70" as="geometry" />
        </mxCell>
        <mxCell id="yJoKxNVRloe3FFeGkEBf-345" value="S3_A8" style="shape=mxgraph.cisco.switches.workgroup_switch;sketch=0;html=1;pointerEvents=1;dashed=0;fillColor=#036897;strokeColor=#ffffff;strokeWidth=2;verticalLabelPosition=bottom;verticalAlign=top;align=center;outlineConnect=0;" parent="1" vertex="1">
          <mxGeometry x="1433" y="295.5" width="101" height="50" as="geometry" />
        </mxCell>
        <mxCell id="yJoKxNVRloe3FFeGkEBf-350" value="5 x Printer" style="shape=mxgraph.cisco.computers_and_peripherals.printer;sketch=0;html=1;pointerEvents=1;dashed=0;fillColor=#036897;strokeColor=#ffffff;strokeWidth=2;verticalLabelPosition=bottom;verticalAlign=top;align=center;outlineConnect=0;" parent="1" vertex="1">
          <mxGeometry x="1904" y="420.5" width="91" height="34" as="geometry" />
        </mxCell>
        <mxCell id="yJoKxNVRloe3FFeGkEBf-353" value="S3_A6" style="shape=mxgraph.cisco.switches.workgroup_switch;sketch=0;html=1;pointerEvents=1;dashed=0;fillColor=#036897;strokeColor=#ffffff;strokeWidth=2;verticalLabelPosition=bottom;verticalAlign=top;align=center;outlineConnect=0;" parent="1" vertex="1">
          <mxGeometry x="1433" y="-43.5" width="101" height="50" as="geometry" />
        </mxCell>
        <mxCell id="yJoKxNVRloe3FFeGkEBf-360" value="4 x WAP&amp;nbsp;" style="shape=mxgraph.cisco.wireless.wlan_controller;sketch=0;html=1;pointerEvents=1;dashed=0;fillColor=#036897;strokeColor=#ffffff;strokeWidth=2;verticalLabelPosition=bottom;verticalAlign=top;align=center;outlineConnect=0;" parent="1" vertex="1">
          <mxGeometry x="1887.5" y="-58.5" width="101" height="56" as="geometry" />
        </mxCell>
        <mxCell id="yJoKxNVRloe3FFeGkEBf-361" value="" style="endArrow=none;dashed=1;html=1;dashPattern=1 3;strokeWidth=2;rounded=0;entryX=0;entryY=0.5;entryDx=0;entryDy=0;exitX=0.98;exitY=0.5;exitDx=0;exitDy=0;exitPerimeter=0;" parent="1" source="yJoKxNVRloe3FFeGkEBf-353" edge="1">
          <mxGeometry width="50" height="50" relative="1" as="geometry">
            <mxPoint x="1532" y="-18.5" as="sourcePoint" />
            <mxPoint x="1533" y="-18.5" as="targetPoint" />
          </mxGeometry>
        </mxCell>
        <mxCell id="yJoKxNVRloe3FFeGkEBf-363" value="20 X Security Camera&lt;div&gt;&lt;br&gt;&lt;/div&gt;" style="shape=mxgraph.cisco.computers_and_peripherals.video_camera;sketch=0;html=1;pointerEvents=1;dashed=0;fillColor=#036897;strokeColor=#ffffff;strokeWidth=2;verticalLabelPosition=bottom;verticalAlign=top;align=center;outlineConnect=0;" parent="1" vertex="1">
          <mxGeometry x="1898" y="274.5" width="49" height="78" as="geometry" />
        </mxCell>
        <mxCell id="yJoKxNVRloe3FFeGkEBf-364" value="" style="endArrow=none;html=1;rounded=0;entryX=0;entryY=0.5;entryDx=0;entryDy=0;entryPerimeter=0;exitX=1;exitY=0.5;exitDx=0;exitDy=0;edgeStyle=orthogonalEdgeStyle;" parent="1" target="yJoKxNVRloe3FFeGkEBf-353" edge="1">
          <mxGeometry width="50" height="50" relative="1" as="geometry">
            <mxPoint x="1333" y="-318.5" as="sourcePoint" />
            <mxPoint x="1063" y="-240.5" as="targetPoint" />
          </mxGeometry>
        </mxCell>
        <mxCell id="yJoKxNVRloe3FFeGkEBf-365" value="" style="endArrow=none;html=1;rounded=0;entryX=0;entryY=0.5;entryDx=0;entryDy=0;entryPerimeter=0;exitX=1;exitY=0.5;exitDx=0;exitDy=0;edgeStyle=orthogonalEdgeStyle;" parent="1" target="yJoKxNVRloe3FFeGkEBf-345" edge="1">
          <mxGeometry width="50" height="50" relative="1" as="geometry">
            <mxPoint x="1333" y="-318.5" as="sourcePoint" />
            <mxPoint x="1373" y="251.5" as="targetPoint" />
          </mxGeometry>
        </mxCell>
        <mxCell id="qJ4gPJ_xpw77I3Yt8IS7-3" value="" style="endArrow=none;html=1;rounded=0;entryX=0;entryY=0.5;entryDx=0;entryDy=0;entryPerimeter=0;" edge="1" parent="1" target="yJoKxNVRloe3FFeGkEBf-5">
          <mxGeometry width="50" height="50" relative="1" as="geometry">
            <mxPoint x="70" y="253" as="sourcePoint" />
            <mxPoint x="230" y="230" as="targetPoint" />
          </mxGeometry>
        </mxCell>
        <mxCell id="qJ4gPJ_xpw77I3Yt8IS7-4" value="" style="endArrow=none;html=1;rounded=0;entryX=0;entryY=0.5;entryDx=0;entryDy=0;entryPerimeter=0;" edge="1" parent="1" target="yJoKxNVRloe3FFeGkEBf-178">
          <mxGeometry width="50" height="50" relative="1" as="geometry">
            <mxPoint x="60" y="377" as="sourcePoint" />
            <mxPoint x="150" y="370" as="targetPoint" />
          </mxGeometry>
        </mxCell>
        <mxCell id="qJ4gPJ_xpw77I3Yt8IS7-6" value="" style="endArrow=none;html=1;rounded=0;entryX=0.98;entryY=0.5;entryDx=0;entryDy=0;entryPerimeter=0;exitX=0.16;exitY=0.5;exitDx=0;exitDy=0;exitPerimeter=0;" edge="1" parent="1" source="yJoKxNVRloe3FFeGkEBf-130" target="yJoKxNVRloe3FFeGkEBf-114">
          <mxGeometry width="50" height="50" relative="1" as="geometry">
            <mxPoint x="-470" y="-50" as="sourcePoint" />
            <mxPoint x="-420" y="-100" as="targetPoint" />
          </mxGeometry>
        </mxCell>
        <mxCell id="qJ4gPJ_xpw77I3Yt8IS7-7" value="" style="endArrow=none;html=1;rounded=0;entryX=0.98;entryY=0.5;entryDx=0;entryDy=0;entryPerimeter=0;exitX=0.16;exitY=0.5;exitDx=0;exitDy=0;exitPerimeter=0;" edge="1" parent="1">
          <mxGeometry width="50" height="50" relative="1" as="geometry">
            <mxPoint x="-610" y="23.230000000000004" as="sourcePoint" />
            <mxPoint x="-184" y="24.230000000000004" as="targetPoint" />
          </mxGeometry>
        </mxCell>
        <mxCell id="qJ4gPJ_xpw77I3Yt8IS7-8" value="" style="endArrow=none;html=1;rounded=0;entryX=0.98;entryY=0.5;entryDx=0;entryDy=0;entryPerimeter=0;exitX=0.16;exitY=0.5;exitDx=0;exitDy=0;exitPerimeter=0;" edge="1" parent="1">
          <mxGeometry width="50" height="50" relative="1" as="geometry">
            <mxPoint x="-610" y="143.23" as="sourcePoint" />
            <mxPoint x="-184" y="144.23" as="targetPoint" />
          </mxGeometry>
        </mxCell>
        <mxCell id="qJ4gPJ_xpw77I3Yt8IS7-9" value="" style="endArrow=none;html=1;rounded=0;entryX=0.98;entryY=0.5;entryDx=0;entryDy=0;entryPerimeter=0;exitX=0.16;exitY=0.5;exitDx=0;exitDy=0;exitPerimeter=0;" edge="1" parent="1">
          <mxGeometry width="50" height="50" relative="1" as="geometry">
            <mxPoint x="-602" y="263.23" as="sourcePoint" />
            <mxPoint x="-176" y="264.23" as="targetPoint" />
          </mxGeometry>
        </mxCell>
        <mxCell id="qJ4gPJ_xpw77I3Yt8IS7-10" value="" style="endArrow=none;html=1;rounded=0;entryX=0.98;entryY=0.5;entryDx=0;entryDy=0;entryPerimeter=0;exitX=0.16;exitY=0.5;exitDx=0;exitDy=0;exitPerimeter=0;" edge="1" parent="1">
          <mxGeometry width="50" height="50" relative="1" as="geometry">
            <mxPoint x="-616" y="383.23" as="sourcePoint" />
            <mxPoint x="-190" y="384.23" as="targetPoint" />
          </mxGeometry>
        </mxCell>
        <mxCell id="qJ4gPJ_xpw77I3Yt8IS7-12" value="" style="endArrow=none;html=1;rounded=0;entryX=0.98;entryY=0.5;entryDx=0;entryDy=0;entryPerimeter=0;exitX=0;exitY=0.5;exitDx=0;exitDy=0;exitPerimeter=0;" edge="1" parent="1" source="yJoKxNVRloe3FFeGkEBf-201" target="yJoKxNVRloe3FFeGkEBf-108">
          <mxGeometry width="50" height="50" relative="1" as="geometry">
            <mxPoint x="-430" y="540" as="sourcePoint" />
            <mxPoint x="-380" y="490" as="targetPoint" />
          </mxGeometry>
        </mxCell>
        <mxCell id="qJ4gPJ_xpw77I3Yt8IS7-16" value="" style="endArrow=none;html=1;rounded=0;entryX=1;entryY=0;entryDx=0;entryDy=0;entryPerimeter=0;" edge="1" parent="1" source="yJoKxNVRloe3FFeGkEBf-89" target="yJoKxNVRloe3FFeGkEBf-109">
          <mxGeometry width="50" height="50" relative="1" as="geometry">
            <mxPoint x="-390" y="630" as="sourcePoint" />
            <mxPoint x="-340" y="580" as="targetPoint" />
          </mxGeometry>
        </mxCell>
        <mxCell id="qJ4gPJ_xpw77I3Yt8IS7-17" value="" style="endArrow=none;html=1;rounded=0;entryX=1;entryY=0;entryDx=0;entryDy=0;entryPerimeter=0;" edge="1" parent="1" source="yJoKxNVRloe3FFeGkEBf-86" target="yJoKxNVRloe3FFeGkEBf-109">
          <mxGeometry width="50" height="50" relative="1" as="geometry">
            <mxPoint x="-520" y="720" as="sourcePoint" />
            <mxPoint x="-470" y="670" as="targetPoint" />
          </mxGeometry>
        </mxCell>
        <mxCell id="qJ4gPJ_xpw77I3Yt8IS7-18" value="" style="endArrow=none;html=1;rounded=0;entryX=1;entryY=0;entryDx=0;entryDy=0;entryPerimeter=0;" edge="1" parent="1" source="yJoKxNVRloe3FFeGkEBf-202" target="yJoKxNVRloe3FFeGkEBf-115">
          <mxGeometry width="50" height="50" relative="1" as="geometry">
            <mxPoint x="-460" y="890" as="sourcePoint" />
            <mxPoint x="-410" y="840" as="targetPoint" />
          </mxGeometry>
        </mxCell>
        <mxCell id="qJ4gPJ_xpw77I3Yt8IS7-19" value="" style="endArrow=none;html=1;rounded=0;entryX=1;entryY=0;entryDx=0;entryDy=0;entryPerimeter=0;" edge="1" parent="1" source="yJoKxNVRloe3FFeGkEBf-173" target="yJoKxNVRloe3FFeGkEBf-115">
          <mxGeometry width="50" height="50" relative="1" as="geometry">
            <mxPoint x="-510" y="970" as="sourcePoint" />
            <mxPoint x="-460" y="920" as="targetPoint" />
          </mxGeometry>
        </mxCell>
        <mxCell id="qJ4gPJ_xpw77I3Yt8IS7-20" value="" style="endArrow=none;html=1;rounded=0;exitX=1;exitY=0.5;exitDx=0;exitDy=0;exitPerimeter=0;" edge="1" parent="1" source="yJoKxNVRloe3FFeGkEBf-265">
          <mxGeometry width="50" height="50" relative="1" as="geometry">
            <mxPoint x="1160" y="-330" as="sourcePoint" />
            <mxPoint x="1330" y="-325" as="targetPoint" />
          </mxGeometry>
        </mxCell>
        <mxCell id="qJ4gPJ_xpw77I3Yt8IS7-21" value="" style="endArrow=none;html=1;rounded=0;exitX=1;exitY=0.5;exitDx=0;exitDy=0;exitPerimeter=0;" edge="1" parent="1" source="yJoKxNVRloe3FFeGkEBf-203">
          <mxGeometry width="50" height="50" relative="1" as="geometry">
            <mxPoint x="1190" y="1020" as="sourcePoint" />
            <mxPoint x="1330" y="939" as="targetPoint" />
          </mxGeometry>
        </mxCell>
        <mxCell id="qJ4gPJ_xpw77I3Yt8IS7-22" value="" style="endArrow=none;html=1;rounded=0;exitX=1;exitY=0.5;exitDx=0;exitDy=0;exitPerimeter=0;" edge="1" parent="1" source="yJoKxNVRloe3FFeGkEBf-15">
          <mxGeometry width="50" height="50" relative="1" as="geometry">
            <mxPoint x="1240" y="840" as="sourcePoint" />
            <mxPoint x="1330" y="816" as="targetPoint" />
          </mxGeometry>
        </mxCell>
        <mxCell id="qJ4gPJ_xpw77I3Yt8IS7-23" value="" style="endArrow=none;html=1;rounded=0;exitX=0.98;exitY=0.5;exitDx=0;exitDy=0;exitPerimeter=0;" edge="1" parent="1" source="yJoKxNVRloe3FFeGkEBf-271" target="yJoKxNVRloe3FFeGkEBf-285">
          <mxGeometry width="50" height="50" relative="1" as="geometry">
            <mxPoint x="1690" y="-640" as="sourcePoint" />
            <mxPoint x="1740" y="-690" as="targetPoint" />
          </mxGeometry>
        </mxCell>
        <mxCell id="qJ4gPJ_xpw77I3Yt8IS7-24" value="" style="endArrow=none;html=1;rounded=0;exitX=0.98;exitY=0.5;exitDx=0;exitDy=0;exitPerimeter=0;" edge="1" parent="1" source="yJoKxNVRloe3FFeGkEBf-270" target="yJoKxNVRloe3FFeGkEBf-291">
          <mxGeometry width="50" height="50" relative="1" as="geometry">
            <mxPoint x="1770" y="-450" as="sourcePoint" />
            <mxPoint x="1820" y="-500" as="targetPoint" />
          </mxGeometry>
        </mxCell>
        <mxCell id="qJ4gPJ_xpw77I3Yt8IS7-25" value="" style="endArrow=none;html=1;rounded=0;exitX=0.98;exitY=0.5;exitDx=0;exitDy=0;exitPerimeter=0;" edge="1" parent="1" source="yJoKxNVRloe3FFeGkEBf-269" target="yJoKxNVRloe3FFeGkEBf-299">
          <mxGeometry width="50" height="50" relative="1" as="geometry">
            <mxPoint x="1660" y="-340" as="sourcePoint" />
            <mxPoint x="1710" y="-390" as="targetPoint" />
          </mxGeometry>
        </mxCell>
        <mxCell id="qJ4gPJ_xpw77I3Yt8IS7-26" value="" style="endArrow=none;html=1;rounded=0;exitX=0.98;exitY=0.5;exitDx=0;exitDy=0;exitPerimeter=0;" edge="1" parent="1" source="yJoKxNVRloe3FFeGkEBf-268" target="yJoKxNVRloe3FFeGkEBf-307">
          <mxGeometry width="50" height="50" relative="1" as="geometry">
            <mxPoint x="1660" y="-240" as="sourcePoint" />
            <mxPoint x="1710" y="-290" as="targetPoint" />
          </mxGeometry>
        </mxCell>
        <mxCell id="qJ4gPJ_xpw77I3Yt8IS7-27" value="" style="endArrow=none;html=1;rounded=0;exitX=0.98;exitY=0.5;exitDx=0;exitDy=0;exitPerimeter=0;" edge="1" parent="1" source="yJoKxNVRloe3FFeGkEBf-266" target="yJoKxNVRloe3FFeGkEBf-344">
          <mxGeometry width="50" height="50" relative="1" as="geometry">
            <mxPoint x="1670" y="-110" as="sourcePoint" />
            <mxPoint x="1720" y="-160" as="targetPoint" />
          </mxGeometry>
        </mxCell>
        <mxCell id="qJ4gPJ_xpw77I3Yt8IS7-28" value="" style="endArrow=none;html=1;rounded=0;exitX=0.98;exitY=0.5;exitDx=0;exitDy=0;exitPerimeter=0;" edge="1" parent="1" source="yJoKxNVRloe3FFeGkEBf-353" target="yJoKxNVRloe3FFeGkEBf-360">
          <mxGeometry width="50" height="50" relative="1" as="geometry">
            <mxPoint x="1670" y="10" as="sourcePoint" />
            <mxPoint x="1720" y="-40" as="targetPoint" />
          </mxGeometry>
        </mxCell>
        <mxCell id="qJ4gPJ_xpw77I3Yt8IS7-31" value="" style="endArrow=none;html=1;rounded=0;" edge="1" parent="1" source="yJoKxNVRloe3FFeGkEBf-345" target="yJoKxNVRloe3FFeGkEBf-363">
          <mxGeometry width="50" height="50" relative="1" as="geometry">
            <mxPoint x="1650" y="280" as="sourcePoint" />
            <mxPoint x="1700" y="230" as="targetPoint" />
          </mxGeometry>
        </mxCell>
        <mxCell id="qJ4gPJ_xpw77I3Yt8IS7-32" value="" style="endArrow=none;html=1;rounded=0;exitX=0.98;exitY=0.5;exitDx=0;exitDy=0;exitPerimeter=0;entryX=0.28;entryY=0.5;entryDx=0;entryDy=0;entryPerimeter=0;" edge="1" parent="1" source="yJoKxNVRloe3FFeGkEBf-267" target="yJoKxNVRloe3FFeGkEBf-326">
          <mxGeometry width="50" height="50" relative="1" as="geometry">
            <mxPoint x="1790" y="100" as="sourcePoint" />
            <mxPoint x="1840" y="50" as="targetPoint" />
          </mxGeometry>
        </mxCell>
        <mxCell id="qJ4gPJ_xpw77I3Yt8IS7-33" value="" style="endArrow=none;html=1;rounded=0;entryX=0;entryY=0.5;entryDx=0;entryDy=0;entryPerimeter=0;exitX=0.98;exitY=0.5;exitDx=0;exitDy=0;exitPerimeter=0;" edge="1" parent="1" source="yJoKxNVRloe3FFeGkEBf-267" target="yJoKxNVRloe3FFeGkEBf-323">
          <mxGeometry width="50" height="50" relative="1" as="geometry">
            <mxPoint x="1690" y="190" as="sourcePoint" />
            <mxPoint x="1740" y="140" as="targetPoint" />
          </mxGeometry>
        </mxCell>
        <mxCell id="qJ4gPJ_xpw77I3Yt8IS7-34" value="" style="endArrow=none;html=1;rounded=0;entryX=0;entryY=0.5;entryDx=0;entryDy=0;entryPerimeter=0;exitX=0.98;exitY=0.5;exitDx=0;exitDy=0;exitPerimeter=0;" edge="1" parent="1" source="yJoKxNVRloe3FFeGkEBf-345" target="yJoKxNVRloe3FFeGkEBf-350">
          <mxGeometry width="50" height="50" relative="1" as="geometry">
            <mxPoint x="1680" y="450" as="sourcePoint" />
            <mxPoint x="1730" y="400" as="targetPoint" />
          </mxGeometry>
        </mxCell>
        <mxCell id="qJ4gPJ_xpw77I3Yt8IS7-35" value="" style="endArrow=none;html=1;rounded=0;exitX=0.98;exitY=0.5;exitDx=0;exitDy=0;exitPerimeter=0;" edge="1" parent="1" source="yJoKxNVRloe3FFeGkEBf-21" target="yJoKxNVRloe3FFeGkEBf-35">
          <mxGeometry width="50" height="50" relative="1" as="geometry">
            <mxPoint x="1690" y="520" as="sourcePoint" />
            <mxPoint x="1740" y="470" as="targetPoint" />
          </mxGeometry>
        </mxCell>
        <mxCell id="qJ4gPJ_xpw77I3Yt8IS7-36" value="" style="endArrow=none;html=1;rounded=0;exitX=0.98;exitY=0.5;exitDx=0;exitDy=0;exitPerimeter=0;" edge="1" parent="1" source="yJoKxNVRloe3FFeGkEBf-20" target="yJoKxNVRloe3FFeGkEBf-41">
          <mxGeometry width="50" height="50" relative="1" as="geometry">
            <mxPoint x="1670" y="720" as="sourcePoint" />
            <mxPoint x="1720" y="670" as="targetPoint" />
          </mxGeometry>
        </mxCell>
        <mxCell id="qJ4gPJ_xpw77I3Yt8IS7-37" value="" style="endArrow=none;html=1;rounded=0;exitX=0.98;exitY=0.5;exitDx=0;exitDy=0;exitPerimeter=0;" edge="1" parent="1" source="yJoKxNVRloe3FFeGkEBf-19" target="yJoKxNVRloe3FFeGkEBf-49">
          <mxGeometry width="50" height="50" relative="1" as="geometry">
            <mxPoint x="1700" y="770" as="sourcePoint" />
            <mxPoint x="1750" y="720" as="targetPoint" />
          </mxGeometry>
        </mxCell>
        <mxCell id="qJ4gPJ_xpw77I3Yt8IS7-38" value="" style="endArrow=none;html=1;rounded=0;exitX=0.98;exitY=0.5;exitDx=0;exitDy=0;exitPerimeter=0;entryX=0.16;entryY=0.5;entryDx=0;entryDy=0;entryPerimeter=0;" edge="1" parent="1" source="yJoKxNVRloe3FFeGkEBf-18" target="yJoKxNVRloe3FFeGkEBf-57">
          <mxGeometry width="50" height="50" relative="1" as="geometry">
            <mxPoint x="1680" y="980" as="sourcePoint" />
            <mxPoint x="1730" y="930" as="targetPoint" />
          </mxGeometry>
        </mxCell>
        <mxCell id="qJ4gPJ_xpw77I3Yt8IS7-39" value="" style="endArrow=none;html=1;rounded=0;exitX=0.98;exitY=0.5;exitDx=0;exitDy=0;exitPerimeter=0;" edge="1" parent="1" source="yJoKxNVRloe3FFeGkEBf-16" target="yJoKxNVRloe3FFeGkEBf-241">
          <mxGeometry width="50" height="50" relative="1" as="geometry">
            <mxPoint x="1700" y="1100" as="sourcePoint" />
            <mxPoint x="1750" y="1050" as="targetPoint" />
          </mxGeometry>
        </mxCell>
        <mxCell id="qJ4gPJ_xpw77I3Yt8IS7-42" value="" style="endArrow=none;html=1;rounded=0;exitX=0.98;exitY=0.5;exitDx=0;exitDy=0;exitPerimeter=0;" edge="1" parent="1" source="yJoKxNVRloe3FFeGkEBf-251" target="yJoKxNVRloe3FFeGkEBf-258">
          <mxGeometry width="50" height="50" relative="1" as="geometry">
            <mxPoint x="1680" y="1190" as="sourcePoint" />
            <mxPoint x="1730" y="1140" as="targetPoint" />
          </mxGeometry>
        </mxCell>
        <mxCell id="qJ4gPJ_xpw77I3Yt8IS7-43" value="" style="endArrow=none;html=1;rounded=0;exitX=0.98;exitY=0.5;exitDx=0;exitDy=0;exitPerimeter=0;" edge="1" parent="1" source="yJoKxNVRloe3FFeGkEBf-17" target="yJoKxNVRloe3FFeGkEBf-76">
          <mxGeometry width="50" height="50" relative="1" as="geometry">
            <mxPoint x="1710" y="1280" as="sourcePoint" />
            <mxPoint x="1760" y="1230" as="targetPoint" />
          </mxGeometry>
        </mxCell>
        <mxCell id="qJ4gPJ_xpw77I3Yt8IS7-44" value="" style="endArrow=none;html=1;rounded=0;exitX=0.98;exitY=0.5;exitDx=0;exitDy=0;exitPerimeter=0;entryX=0;entryY=0.5;entryDx=0;entryDy=0;entryPerimeter=0;" edge="1" parent="1" source="yJoKxNVRloe3FFeGkEBf-17" target="yJoKxNVRloe3FFeGkEBf-73">
          <mxGeometry width="50" height="50" relative="1" as="geometry">
            <mxPoint x="1670" y="1400" as="sourcePoint" />
            <mxPoint x="1720" y="1350" as="targetPoint" />
          </mxGeometry>
        </mxCell>
        <mxCell id="qJ4gPJ_xpw77I3Yt8IS7-45" value="" style="endArrow=none;html=1;rounded=0;exitX=0.98;exitY=0.5;exitDx=0;exitDy=0;exitPerimeter=0;" edge="1" parent="1" source="yJoKxNVRloe3FFeGkEBf-242" target="yJoKxNVRloe3FFeGkEBf-261">
          <mxGeometry width="50" height="50" relative="1" as="geometry">
            <mxPoint x="1650" y="1530" as="sourcePoint" />
            <mxPoint x="1700" y="1480" as="targetPoint" />
          </mxGeometry>
        </mxCell>
        <mxCell id="qJ4gPJ_xpw77I3Yt8IS7-46" value="" style="endArrow=none;html=1;rounded=0;exitX=0.98;exitY=0.5;exitDx=0;exitDy=0;exitPerimeter=0;" edge="1" parent="1" source="yJoKxNVRloe3FFeGkEBf-242" target="yJoKxNVRloe3FFeGkEBf-248">
          <mxGeometry width="50" height="50" relative="1" as="geometry">
            <mxPoint x="1670" y="1580" as="sourcePoint" />
            <mxPoint x="1720" y="1530" as="targetPoint" />
          </mxGeometry>
        </mxCell>
      </root>
    </mxGraphModel>
  </diagram>
</mxfile>
